<?xml version="1.0" encoding="iso-8859-1"?>
<!-- Uploaded to: SVG Repo, www.svgrepo.com, Generator: SVG Repo Mixer Tools -->
<svg height="800px" width="800px" version="1.1" id="Layer_1" xmlns="http://www.w3.org/2000/svg" xmlns:xlink="http://www.w3.org/1999/xlink" 
	 viewBox="0 0 511.999 511.999" xml:space="preserve">
<g>
	<path style="fill:#507C5C;" d="M382.795,358.347h-263.03c-7.958,0-14.411-6.452-14.411-14.411s6.453-14.411,14.411-14.411h263.029
		c55.352,0,100.384-45.032,100.384-100.384v-25.501c0-55.352-45.032-100.384-100.384-100.384h-84.939v42.04h84.939
		c7.958,0,14.411,6.452,14.411,14.411s-6.453,14.411-14.411,14.411h-99.349c-7.958,0-14.411-6.452-14.411-14.411V88.846
		c0-7.959,6.453-14.411,14.411-14.411h99.349c71.243,0,129.205,57.961,129.205,129.205v25.501
		C512,300.386,454.038,358.347,382.795,358.347z"/>
	<path style="fill:#507C5C;" d="M382.795,287.487H265.631c-7.958,0-14.411-6.452-14.411-14.411c0-7.959,6.453-14.411,14.411-14.411
		h117.164c15.728,0,29.523-13.797,29.523-29.523v-25.501c0-7.959,6.453-14.411,14.411-14.411s14.411,6.452,14.411,14.411v25.501
		C441.139,260.768,414.42,287.487,382.795,287.487z"/>
</g>
<polygon style="fill:#CFF09E;" points="200.171,423.152 14.411,307.407 200.171,191.663 "/>
<path style="fill:#507C5C;" d="M200.171,437.563c-2.649,0-5.293-0.729-7.62-2.18L6.79,319.638C2.567,317.006,0,312.383,0,307.407
	s2.567-9.599,6.79-12.23l185.761-115.744c4.441-2.77,10.038-2.909,14.615-0.369c4.578,2.541,7.416,7.364,7.416,12.599v231.49
	c0,5.235-2.839,10.059-7.416,12.599C204.987,436.961,202.578,437.563,200.171,437.563z M41.661,307.407l144.1,89.786V217.62
	L41.661,307.407z"/>
</svg>